<mxfile host="app.diagrams.net" agent="Mozilla/5.0 (Windows NT 10.0; Win64; x64) AppleWebKit/537.36 (KHTML, like Gecko) Chrome/130.0.0.0 Safari/537.36" version="24.8.3">
  <diagram name="Page-1" id="KwuxjpmZFLdWZ-KsczHr">
    <mxGraphModel dx="957" dy="441" grid="1" gridSize="10" guides="1" tooltips="1" connect="1" arrows="1" fold="1" page="1" pageScale="1" pageWidth="850" pageHeight="1100" math="0" shadow="0">
      <root>
        <mxCell id="0" />
        <mxCell id="1" parent="0" />
        <mxCell id="q2f96ItqwjUoRckXdhgB-1" value="Login user" style="rounded=0;whiteSpace=wrap;html=1;" vertex="1" parent="1">
          <mxGeometry x="90" y="170" width="120" height="30" as="geometry" />
        </mxCell>
        <mxCell id="q2f96ItqwjUoRckXdhgB-11" style="edgeStyle=orthogonalEdgeStyle;rounded=0;orthogonalLoop=1;jettySize=auto;html=1;entryX=0;entryY=0.5;entryDx=0;entryDy=0;" edge="1" parent="1" source="q2f96ItqwjUoRckXdhgB-2" target="q2f96ItqwjUoRckXdhgB-10">
          <mxGeometry relative="1" as="geometry" />
        </mxCell>
        <mxCell id="q2f96ItqwjUoRckXdhgB-17" style="edgeStyle=orthogonalEdgeStyle;rounded=0;orthogonalLoop=1;jettySize=auto;html=1;entryX=0;entryY=0.5;entryDx=0;entryDy=0;exitX=0.5;exitY=1;exitDx=0;exitDy=0;" edge="1" parent="1" source="q2f96ItqwjUoRckXdhgB-2" target="q2f96ItqwjUoRckXdhgB-15">
          <mxGeometry relative="1" as="geometry">
            <Array as="points">
              <mxPoint x="360" y="210" />
              <mxPoint x="360" y="365" />
            </Array>
          </mxGeometry>
        </mxCell>
        <mxCell id="q2f96ItqwjUoRckXdhgB-20" style="edgeStyle=orthogonalEdgeStyle;rounded=0;orthogonalLoop=1;jettySize=auto;html=1;entryX=0;entryY=0.5;entryDx=0;entryDy=0;exitX=0.5;exitY=1;exitDx=0;exitDy=0;" edge="1" parent="1" source="q2f96ItqwjUoRckXdhgB-2" target="q2f96ItqwjUoRckXdhgB-16">
          <mxGeometry relative="1" as="geometry">
            <Array as="points">
              <mxPoint x="360" y="210" />
              <mxPoint x="360" y="565" />
            </Array>
          </mxGeometry>
        </mxCell>
        <mxCell id="q2f96ItqwjUoRckXdhgB-2" value="" style="shape=actor;whiteSpace=wrap;html=1;" vertex="1" parent="1">
          <mxGeometry x="340" y="150" width="50" height="60" as="geometry" />
        </mxCell>
        <mxCell id="q2f96ItqwjUoRckXdhgB-3" style="edgeStyle=orthogonalEdgeStyle;rounded=0;orthogonalLoop=1;jettySize=auto;html=1;entryX=0.014;entryY=0.598;entryDx=0;entryDy=0;entryPerimeter=0;" edge="1" parent="1" source="q2f96ItqwjUoRckXdhgB-1" target="q2f96ItqwjUoRckXdhgB-2">
          <mxGeometry relative="1" as="geometry" />
        </mxCell>
        <mxCell id="q2f96ItqwjUoRckXdhgB-5" style="edgeStyle=orthogonalEdgeStyle;rounded=0;orthogonalLoop=1;jettySize=auto;html=1;entryX=0.5;entryY=0;entryDx=0;entryDy=0;" edge="1" parent="1" source="q2f96ItqwjUoRckXdhgB-4" target="q2f96ItqwjUoRckXdhgB-2">
          <mxGeometry relative="1" as="geometry" />
        </mxCell>
        <mxCell id="q2f96ItqwjUoRckXdhgB-4" value="Create user" style="rounded=0;whiteSpace=wrap;html=1;" vertex="1" parent="1">
          <mxGeometry x="305" y="50" width="120" height="30" as="geometry" />
        </mxCell>
        <mxCell id="q2f96ItqwjUoRckXdhgB-7" value="POST/login" style="text;html=1;align=center;verticalAlign=middle;resizable=0;points=[];autosize=1;strokeColor=none;fillColor=none;" vertex="1" parent="1">
          <mxGeometry x="240" y="160" width="80" height="30" as="geometry" />
        </mxCell>
        <mxCell id="q2f96ItqwjUoRckXdhgB-8" value="POST/signup" style="text;html=1;align=center;verticalAlign=middle;resizable=0;points=[];autosize=1;strokeColor=none;fillColor=none;" vertex="1" parent="1">
          <mxGeometry x="370" y="100" width="90" height="30" as="geometry" />
        </mxCell>
        <mxCell id="q2f96ItqwjUoRckXdhgB-9" value="Profile Password change" style="rounded=0;whiteSpace=wrap;html=1;" vertex="1" parent="1">
          <mxGeometry x="580" y="230" width="150" height="30" as="geometry" />
        </mxCell>
        <mxCell id="q2f96ItqwjUoRckXdhgB-10" value="Access profile" style="rounded=0;whiteSpace=wrap;html=1;" vertex="1" parent="1">
          <mxGeometry x="580" y="165" width="120" height="30" as="geometry" />
        </mxCell>
        <mxCell id="q2f96ItqwjUoRckXdhgB-14" style="edgeStyle=orthogonalEdgeStyle;rounded=0;orthogonalLoop=1;jettySize=auto;html=1;entryX=0;entryY=0.5;entryDx=0;entryDy=0;" edge="1" parent="1" target="q2f96ItqwjUoRckXdhgB-9">
          <mxGeometry relative="1" as="geometry">
            <mxPoint x="390" y="180" as="sourcePoint" />
            <mxPoint x="590" y="190" as="targetPoint" />
            <Array as="points">
              <mxPoint x="440" y="180" />
              <mxPoint x="440" y="245" />
            </Array>
          </mxGeometry>
        </mxCell>
        <mxCell id="q2f96ItqwjUoRckXdhgB-28" style="edgeStyle=orthogonalEdgeStyle;rounded=0;orthogonalLoop=1;jettySize=auto;html=1;entryX=0;entryY=0.5;entryDx=0;entryDy=0;" edge="1" parent="1" source="q2f96ItqwjUoRckXdhgB-15" target="q2f96ItqwjUoRckXdhgB-27">
          <mxGeometry relative="1" as="geometry">
            <Array as="points">
              <mxPoint x="630" y="365" />
              <mxPoint x="630" y="305" />
            </Array>
          </mxGeometry>
        </mxCell>
        <mxCell id="q2f96ItqwjUoRckXdhgB-29" style="edgeStyle=orthogonalEdgeStyle;rounded=0;orthogonalLoop=1;jettySize=auto;html=1;entryX=0;entryY=0.5;entryDx=0;entryDy=0;" edge="1" parent="1" source="q2f96ItqwjUoRckXdhgB-15" target="q2f96ItqwjUoRckXdhgB-26">
          <mxGeometry relative="1" as="geometry" />
        </mxCell>
        <mxCell id="q2f96ItqwjUoRckXdhgB-30" style="edgeStyle=orthogonalEdgeStyle;rounded=0;orthogonalLoop=1;jettySize=auto;html=1;" edge="1" parent="1" source="q2f96ItqwjUoRckXdhgB-15" target="q2f96ItqwjUoRckXdhgB-25">
          <mxGeometry relative="1" as="geometry">
            <mxPoint x="780" y="430" as="targetPoint" />
            <Array as="points">
              <mxPoint x="630" y="365" />
              <mxPoint x="630" y="430" />
            </Array>
          </mxGeometry>
        </mxCell>
        <mxCell id="q2f96ItqwjUoRckXdhgB-15" value="Vote" style="rounded=0;whiteSpace=wrap;html=1;" vertex="1" parent="1">
          <mxGeometry x="460" y="340" width="110" height="50" as="geometry" />
        </mxCell>
        <mxCell id="q2f96ItqwjUoRckXdhgB-31" style="edgeStyle=orthogonalEdgeStyle;rounded=0;orthogonalLoop=1;jettySize=auto;html=1;entryX=0;entryY=0.5;entryDx=0;entryDy=0;" edge="1" parent="1" source="q2f96ItqwjUoRckXdhgB-16" target="q2f96ItqwjUoRckXdhgB-24">
          <mxGeometry relative="1" as="geometry">
            <Array as="points">
              <mxPoint x="640" y="565" />
              <mxPoint x="640" y="505" />
            </Array>
          </mxGeometry>
        </mxCell>
        <mxCell id="q2f96ItqwjUoRckXdhgB-32" style="edgeStyle=orthogonalEdgeStyle;rounded=0;orthogonalLoop=1;jettySize=auto;html=1;entryX=0;entryY=0.5;entryDx=0;entryDy=0;" edge="1" parent="1" source="q2f96ItqwjUoRckXdhgB-16" target="q2f96ItqwjUoRckXdhgB-23">
          <mxGeometry relative="1" as="geometry" />
        </mxCell>
        <mxCell id="q2f96ItqwjUoRckXdhgB-16" value="Candidate Management" style="rounded=0;whiteSpace=wrap;html=1;" vertex="1" parent="1">
          <mxGeometry x="445" y="540" width="140" height="50" as="geometry" />
        </mxCell>
        <mxCell id="q2f96ItqwjUoRckXdhgB-22" value="Delete a elector" style="rounded=0;whiteSpace=wrap;html=1;" vertex="1" parent="1">
          <mxGeometry x="810" y="610" width="120" height="30" as="geometry" />
        </mxCell>
        <mxCell id="q2f96ItqwjUoRckXdhgB-23" value="Update existing elector" style="rounded=0;whiteSpace=wrap;html=1;" vertex="1" parent="1">
          <mxGeometry x="810" y="550" width="120" height="30" as="geometry" />
        </mxCell>
        <mxCell id="q2f96ItqwjUoRckXdhgB-24" value="Create new elector" style="rounded=0;whiteSpace=wrap;html=1;" vertex="1" parent="1">
          <mxGeometry x="810" y="490" width="120" height="30" as="geometry" />
        </mxCell>
        <mxCell id="q2f96ItqwjUoRckXdhgB-25" value="List of Electors" style="rounded=0;whiteSpace=wrap;html=1;" vertex="1" parent="1">
          <mxGeometry x="810" y="420" width="120" height="30" as="geometry" />
        </mxCell>
        <mxCell id="q2f96ItqwjUoRckXdhgB-26" value="List of Electors" style="rounded=0;whiteSpace=wrap;html=1;" vertex="1" parent="1">
          <mxGeometry x="810" y="350" width="120" height="30" as="geometry" />
        </mxCell>
        <mxCell id="q2f96ItqwjUoRckXdhgB-27" value="List of Electors" style="rounded=0;whiteSpace=wrap;html=1;shadow=0;" vertex="1" parent="1">
          <mxGeometry x="810" y="290" width="120" height="30" as="geometry" />
        </mxCell>
        <mxCell id="q2f96ItqwjUoRckXdhgB-33" style="edgeStyle=orthogonalEdgeStyle;rounded=0;orthogonalLoop=1;jettySize=auto;html=1;entryX=-0.003;entryY=0.638;entryDx=0;entryDy=0;entryPerimeter=0;" edge="1" parent="1" source="q2f96ItqwjUoRckXdhgB-16" target="q2f96ItqwjUoRckXdhgB-22">
          <mxGeometry relative="1" as="geometry">
            <Array as="points">
              <mxPoint x="640" y="565" />
              <mxPoint x="640" y="629" />
            </Array>
          </mxGeometry>
        </mxCell>
        <mxCell id="q2f96ItqwjUoRckXdhgB-34" value="GET/candidates" style="text;html=1;align=center;verticalAlign=middle;resizable=0;points=[];autosize=1;strokeColor=none;fillColor=none;" vertex="1" parent="1">
          <mxGeometry x="655" y="278" width="110" height="30" as="geometry" />
        </mxCell>
        <mxCell id="q2f96ItqwjUoRckXdhgB-35" value="POST /vote/:candidateId" style="text;html=1;align=center;verticalAlign=middle;resizable=0;points=[];autosize=1;strokeColor=none;fillColor=none;" vertex="1" parent="1">
          <mxGeometry x="635" y="340" width="150" height="30" as="geometry" />
        </mxCell>
        <mxCell id="q2f96ItqwjUoRckXdhgB-36" value="GET /vote/count" style="text;html=1;align=center;verticalAlign=middle;resizable=0;points=[];autosize=1;strokeColor=none;fillColor=none;" vertex="1" parent="1">
          <mxGeometry x="655" y="410" width="110" height="30" as="geometry" />
        </mxCell>
        <mxCell id="q2f96ItqwjUoRckXdhgB-37" value="POST /candidates" style="text;html=1;align=center;verticalAlign=middle;resizable=0;points=[];autosize=1;strokeColor=none;fillColor=none;" vertex="1" parent="1">
          <mxGeometry x="665" y="478" width="120" height="30" as="geometry" />
        </mxCell>
        <mxCell id="q2f96ItqwjUoRckXdhgB-38" value="/candidates/:candidateId" style="text;html=1;align=center;verticalAlign=middle;resizable=0;points=[];autosize=1;strokeColor=none;fillColor=none;" vertex="1" parent="1">
          <mxGeometry x="650" y="540" width="150" height="30" as="geometry" />
        </mxCell>
        <mxCell id="q2f96ItqwjUoRckXdhgB-39" value="/candidates/:candidateId" style="text;html=1;align=center;verticalAlign=middle;resizable=0;points=[];autosize=1;strokeColor=none;fillColor=none;" vertex="1" parent="1">
          <mxGeometry x="650" y="600" width="150" height="30" as="geometry" />
        </mxCell>
        <mxCell id="q2f96ItqwjUoRckXdhgB-40" value="No Role" style="text;html=1;align=center;verticalAlign=middle;resizable=0;points=[];autosize=1;strokeColor=none;fillColor=none;shadow=1;" vertex="1" parent="1">
          <mxGeometry x="670" y="298" width="70" height="30" as="geometry" />
        </mxCell>
        <mxCell id="q2f96ItqwjUoRckXdhgB-41" value="Role=&quot;Voter" style="text;html=1;align=center;verticalAlign=middle;resizable=0;points=[];autosize=1;strokeColor=none;fillColor=none;" vertex="1" parent="1">
          <mxGeometry x="660" y="360" width="90" height="30" as="geometry" />
        </mxCell>
        <mxCell id="q2f96ItqwjUoRckXdhgB-42" value="No Role" style="text;html=1;align=center;verticalAlign=middle;resizable=0;points=[];autosize=1;strokeColor=none;fillColor=none;" vertex="1" parent="1">
          <mxGeometry x="670" y="430" width="70" height="30" as="geometry" />
        </mxCell>
        <mxCell id="q2f96ItqwjUoRckXdhgB-44" value="Role=&quot;admin" style="text;html=1;align=center;verticalAlign=middle;resizable=0;points=[];autosize=1;strokeColor=none;fillColor=none;" vertex="1" parent="1">
          <mxGeometry x="355" y="540" width="90" height="30" as="geometry" />
        </mxCell>
        <mxCell id="q2f96ItqwjUoRckXdhgB-45" value="GET /profile" style="text;html=1;align=center;verticalAlign=middle;resizable=0;points=[];autosize=1;strokeColor=none;fillColor=none;" vertex="1" parent="1">
          <mxGeometry x="470" y="160" width="90" height="30" as="geometry" />
        </mxCell>
        <mxCell id="q2f96ItqwjUoRckXdhgB-46" value="PUT /profile/password" style="text;html=1;align=center;verticalAlign=middle;resizable=0;points=[];autosize=1;strokeColor=none;fillColor=none;" vertex="1" parent="1">
          <mxGeometry x="440" y="218" width="140" height="30" as="geometry" />
        </mxCell>
      </root>
    </mxGraphModel>
  </diagram>
</mxfile>
